{"title":"The.Internship.2013.UNRATED.720p.BRRip.x264-Fastbet99","uid":9034131,"size":1615706705,"categoryP":"video","categoryS":"hd___movies","magnet":"?xt=urn:btih:f6b704d75eec6e21fd3f81383d25ea3d3c2e4142&amp;dn=The.Internship.2013.UNRATED.720p.BRRip.x264-Fastbet99&amp;tr=udp%3A%2F%2Ftracker.openbittorrent.com%3A80&amp;tr=udp%3A%2F%2Fopen.demonii.com%3A1337&amp;tr=udp%3A%2F%2Ftracker.coppersurfer.tk%3A6969&amp;tr=udp%3A%2F%2Fexodus.desync.com%3A6969","seeders":1,"leechers":1,"uploader":"Fastbet99","files":-1,"time":1381474522,"description":"The Internship (2013)\n\nIMDB Info\t\t\t\t : http://www.imdb.com/title/tt2234155\n\nSource\t\t\t\t\t : PHD (Thanks)\nComplete name                            : The.Internship.2013.UNRATED.720p.BRRip.x264-Fastbet99.mp4\nFormat                                   : MPEG-4\nFormat profile                           : Base Media\nCodec ID                                 : isom\nFile size                                : 1.50 GiB\nDuration                                 : 2h 5mn\nOverall bit rate mode                    : Variable\nOverall bit rate                         : 1 723 Kbps\n\nVideo\nID                                       : 1\nFormat                                   : AVC\nFormat/Info                              : Advanced Video Codec\nFormat profile                           : &lt;a class=&quot;__cf_email__&quot; href=&quot;/cdn-cgi/l/email-protection&quot; data-cfemail=&quot;e3ab8a848ba3afd7cdd2&quot;&gt;[email&amp;#160;protected]&lt;/a&gt;&lt;script cf-hash='f9e31' type=&quot;text/javascript&quot;&gt;\n/* &lt;![CDATA[ */!function(){try{var t=&quot;currentScript&quot;in document?document.currentScript:function(){for(var t=document.getElementsByTagName(&quot;script&quot;),e=t.length;e--;)if(t[e].getAttribute(&quot;cf-hash&quot;))return t[e]}();if(t&amp;&amp;t.previousSibling){var e,r,n,i,c=t.previousSibling,a=c.getAttribute(&quot;data-cfemail&quot;);if(a){for(e=&quot;&quot;,r=parseInt(a.substr(0,2),16),n=2;a.length-n;n+=2)i=parseInt(a.substr(n,2),16)^r,e+=String.fromCharCode(i);e=document.createTextNode(e),c.parentNode.replaceChild(e,c)}}}catch(u){}}();/* ]]&gt; */&lt;/script&gt;\nFormat settings, CABAC                   : Yes\nFormat settings, ReFrames                : 4 frames\nCodec ID                                 : avc1\nCodec ID/Info                            : Advanced Video Coding\nDuration                                 : 2h 5mn\nBit rate                                 : 1 623 Kbps\nMaximum bit rate                         : 10.7 Mbps\nWidth                                    : 1 280 pixels\nHeight                                   : 544 pixels\nDisplay aspect ratio                     : 2.35:1\nFrame rate mode                          : Constant\nFrame rate                               : 23.976 fps\nColor space                              : YUV\nChroma subsampling                       : 4:2:0\nBit depth                                : 8 bits\nScan type                                : Progressive\nBits/(Pixel*Frame)                       : 0.097\nStream size                              : 1.42 GiB (94%)\nWriting library                          : x264 core 133 r2334 a3ac64b\n\nAudio\nID                                       : 2\nFormat                                   : AAC\nFormat/Info                              : Advanced Audio Codec\nFormat profile                           : LC\nCodec ID                                 : 40\nDuration                                 : 2h 5mn\nBit rate mode                            : Variable\nBit rate                                 : 96.0 Kbps\nMaximum bit rate                         : 133 Kbps\nChannel(s)                               : 2 channels\nChannel positions                        : Front: L R\nSampling rate                            : 48.0 KHz\nCompression mode                         : Lossy\nStream size                              : 85.7 MiB (6%)\nLanguage                                 : English\n\nText #1\nID                                       : 3\nFormat                                   : Timed Text\nCodec ID                                 : tx3g\nDuration                                 : 2h 3mn\nBit rate mode                            : Variable\nBit rate                                 : 109 bps\nStream size                              : 98.2 KiB (0%)\nLanguage                                 : English\n\nText #2\nID                                       : 4\nFormat                                   : Timed Text\nCodec ID                                 : tx3g\nDuration                                 : 2h 4mn\nBit rate mode                            : Variable\nBit rate                                 : 97 bps\nStream size                              : 88.9 KiB (0%)\nLanguage                                 : Spanish\n\nText #3\nID                                       : 5\nFormat                                   : Timed Text\nCodec ID                                 : tx3g\nDuration                                 : 2h 4mn\nBit rate mode                            : Variable\nBit rate                                 : 90 bps\nStream size                              : 82.7 KiB (0%)\nLanguage                                 : Portuguese\nEncoder\t\t\t\t\t : Fastbet99\n\nScreenshots\n &lt;a href=&quot;\nhttp://lookpic.com/O/i2/2000/j7Cx2Kk6.jpeg&quot; rel=&quot;nofollow&quot; target=&quot;_NEW&quot;&gt;\nhttp://lookpic.com/O/i2/2000/j7Cx2Kk6.jpeg&lt;/a&gt;\n\nStairway To heaven - Help People With Keep Seed As Long You Can","torrent":{"xt":"urn:btih:f6b704d75eec6e21fd3f81383d25ea3d3c2e4142","amp;dn":"The.Internship.2013.UNRATED.720p.BRRip.x264-Fastbet99","amp;tr":["udp%3A%2F%2Ftracker.openbittorrent.com%3A80","udp%3A%2F%2Fopen.demonii.com%3A1337","udp%3A%2F%2Ftracker.coppersurfer.tk%3A6969","udp%3A%2F%2Fexodus.desync.com%3A6969"],"infoHash":"f6b704d75eec6e21fd3f81383d25ea3d3c2e4142","infoHashBuffer":{"type":"Buffer","data":[246,183,4,215,94,236,110,33,253,63,129,56,61,37,234,61,60,46,65,66]},"announce":[],"urlList":[]}}